<?xml version="1.0" encoding="UTF-8" standalone="no"?>
<!-- Uploaded to: SVG Repo, www.svgrepo.com, Transformed by: SVG Repo Mixer Tools -->

<svg
   width="180px"
   height="180px"
   viewBox="-3.12 -3.12 30.24 30.24"
   fill="#000000"
   stroke="#000000"
   transform="matrix(-1, 0, 0, 1, 0, 0)"
   stroke-width="0.648"
   version="1.1"
   id="svg5"
   sodipodi:docname="box-svgrepo-com.svg"
   inkscape:version="1.4.2 (f4327f4, 2025-05-13)"
   xmlns:inkscape="http://www.inkscape.org/namespaces/inkscape"
   xmlns:sodipodi="http://sodipodi.sourceforge.net/DTD/sodipodi-0.dtd"
   xmlns:xlink="http://www.w3.org/1999/xlink"
   xmlns="http://www.w3.org/2000/svg"
   xmlns:svg="http://www.w3.org/2000/svg">
  <defs
     id="defs5" />
  <sodipodi:namedview
     id="namedview5"
     pagecolor="#ffffff"
     bordercolor="#000000"
     borderopacity="0.25"
     inkscape:showpageshadow="2"
     inkscape:pageopacity="0.0"
     inkscape:pagecheckerboard="0"
     inkscape:deskcolor="#d1d1d1"
     inkscape:zoom="4.4833333"
     inkscape:cx="89.888476"
     inkscape:cy="107.84387"
     inkscape:window-width="1920"
     inkscape:window-height="1009"
     inkscape:window-x="-8"
     inkscape:window-y="-8"
     inkscape:window-maximized="1"
     inkscape:current-layer="svg5" />
  <g
     id="SVGRepo_bgCarrier"
     stroke-width="0"
     transform="translate(5.76,5.76), scale(0.52)">
    <rect
       x="-3.12"
       y="-3.12"
       width="30.24"
       height="30.24"
       rx="0"
       fill="#254D70"
       strokewidth="0"
       id="rect1" />
  </g>
  <g
     id="SVGRepo_tracerCarrier"
     stroke-linecap="round"
     stroke-linejoin="round"
     stroke="#CCCCCC"
     stroke-width="0.048" />
  <g
     id="SVGRepo_iconCarrier"
     style="stroke-width:0.647976;stroke-dasharray:none;fill-rule:nonzero">
    <defs
       id="defs1">
      <path
         id="box-a"
         d="M0,9 L18,9 L18,12 L0,12 L0,9 Z M7,0 L11,0 L11,7 L7,7 L7,0 Z" />
      <path
         id="box-c"
         d="M14,8 L14,14 C14,14.5522847 13.5522847,15 13,15 L7,15 C6.44771525,15 6,14.5522847 6,14 L6,8 L2,8 L2,18 L18,18 L18,8 L14,8 Z M12,8 L8,8 L8,13 L12,13 L12,8 Z M2,6 L18,6 L15,2 L5,2 L2,6 Z M0,18 L0,6 C0,5.56725957 0.140355744,5.14619234 0.4,4.8 L3.4,0.8 C3.77770876,0.296388315 4.37048539,0 5,0 L15,0 C15.6295146,0 16.2222912,0.296388315 16.6,0.8 L19.6,4.8 C19.8596443,5.14619234 20,5.56725957 20,6 L20,18 C20,19.1045695 19.1045695,20 18,20 L2,20 C0.8954305,20 0,19.1045695 0,18 Z" />
    </defs>
    <g
       fill="none"
       fill-rule="evenodd"
       transform="translate(2 2)"
       id="g5"
       style="stroke-width:0.647976;stroke-dasharray:none;fill-rule:nonzero">
      <g
         transform="translate(1 7)"
         id="g3"
         style="stroke-width:0.647976;stroke-dasharray:none;fill-rule:nonzero">
        <mask
           id="box-b"
           fill="#ffffff">
          <use
             xlink:href="#box-a"
             id="use1" />
        </mask>
        <use
           fill="#D8D8D8"
           xlink:href="#box-a"
           id="use2"
           style="stroke-width:0.647976;stroke-dasharray:none;fill-rule:nonzero" />
        <g
           fill="#EFE4D2"
           mask="url(#box-b)"
           id="g2"
           style="stroke-width:0.647976;stroke-dasharray:none;fill-rule:nonzero">
          <rect
             width="24"
             height="24"
             transform="translate(-3 -9)"
             id="rect2"
             style="stroke-width:0.647976;stroke-dasharray:none;fill-rule:nonzero" />
        </g>
      </g>
      <mask
         id="box-d"
         fill="#ffffff">
        <use
           xlink:href="#box-c"
           id="use3" />
      </mask>
      <use
         fill="#ffffff"
         fill-rule="nonzero"
         xlink:href="#box-c"
         id="use4"
         style="stroke-width:0.647976;stroke-dasharray:none;fill-rule:nonzero" />
      <g
         fill="#954C2E"
         mask="url(#box-d)"
         id="g4"
         style="stroke-width:0.647976;stroke-dasharray:none;fill-rule:nonzero">
        <rect
           width="24"
           height="24"
           transform="translate(-2 -2)"
           id="rect4"
           style="stroke-width:0.647976;stroke-dasharray:none;fill-rule:nonzero" />
      </g>
    </g>
  </g>
</svg>
